PathFileType	4	(X/Y/Z)	Patient4_TMGait_0pt5_01_left_05.trc.trc
DataRate	CameraRate	NumFrames	NumMarkers	Units	OrigDataRate	OrigDataStartFrame	OrigNumFrames
70.351758793970	70.351758793970	5	33	mm	70.351758793970	89	       141
Frame#	Time	L.ASIS			Sacral			L.Shoulder			Chest			R.Shoulder			Neck			R.ASIS			R.Thigh.Superior			R.Thigh.Lateral			R.Thigh.Inferior			R.Patella			L.Thigh.Superior			L.Thigh.Lateral			L.Thigh.Inferior			L.Patella			L.Shank.Superior			L.Shank.Lateral			L.Shank.Inferior			R.Shank.Superior			R.Shank.Lateral			R.Shank.Inferior			R.Heel			R.Midfoot.Superior			R.Midfoot.Lateral			R.Toe			L.Heel			L.Midfoot.Lateral			L.Midfoot.Superior			L.Toe			L.Elbow			L.Wrist			R.Elbow			R.Wrist			
		X1	Y1	Z1	X2	Y2	Z2	X3	Y3	Z3	X4	Y4	Z4	X5	Y5	Z5	X6	Y6	Z6	X7	Y7	Z7	X8	Y8	Z8	X9	Y9	Z9	X10	Y10	Z10	X11	Y11	Z11	X12	Y12	Z12	X13	Y13	Z13	X14	Y14	Z14	X15	Y15	Z15	X16	Y16	Z16	X17	Y17	Z17	X18	Y18	Z18	X19	Y19	Z19	X20	Y20	Z20	X21	Y21	Z21	X22	Y22	Z22	X23	Y23	Z23	X24	Y24	Z24	X25	Y25	Z25	X26	Y26	Z26	X27	Y27	Z27	X28	Y28	Z28	X29	Y29	Z29	X30	Y30	Z30	X31	Y31	Z31	X32	Y32	Z32	X33	Y33	Z33	

89	7.830857142857	740.985171805855	962.823526827050	366.188502580624	525.604306149680	999.714798354018	522.082508692485	690.484900106811	1441.631565071370	362.209060926689	789.293498188622	1365.510480892695	523.344541487584	697.175621939887	1429.117579282590	698.527074023383	685.228317780392	1495.703684848351	515.846659353966	755.854838770239	940.458282082754	639.775351021926	812.168675947573	745.762886152411	605.766767487736	739.409117461349	631.985142406375	662.175454671944	820.122549670912	586.011607685347	580.321002693067	828.189372312162	495.095807298135	583.981905101810	785.689751086893	743.980094508396	388.201377343104	700.139188259159	629.902921786139	321.902278066450	785.287086924031	545.390827507976	379.406726342872	777.842661703373	458.951808544434	376.175669006227	709.805012261977	399.951522209183	371.501929315379	570.932270998920	354.460223039213	320.764785028364	556.630212860944	228.580707037891	381.672568134989	800.272195178716	405.769432122713	588.412416264715	732.868966361069	300.122981985670	649.507660532739	772.416266060288	207.063053595262	583.211526010400	636.535952680144	43.654021204889	555.885989175262	809.468965677253	97.408426014177	585.224518088168	722.942414793049	36.706244006036	626.891105772920	930.474105006816	42.625098941388	607.157986972349	363.924454231059	158.540384267934	414.883327092770	427.584992726666	115.613523624790	338.268021834608	530.399373003441	130.245298937831	362.853034957404	615.331000234580	32.901485396205	342.091778717141	712.389546931088	1094.142555488474	226.320569321797	933.840583060171	960.614550030076	259.395300731326	662.205239846631	1082.463365989858	809.401550631155	810.663667517728	868.516188668388	816.115982239182	
90	7.845071428571	739.572456764291	963.816243231731	368.431969707150	525.154562592371	1000.624685736168	525.728037203574	688.147084929996	1442.460093929829	364.629163362442	788.687771237914	1366.519488643695	524.836420150576	698.267088475543	1430.139494694612	700.847787363707	684.305775110863	1496.636719484122	518.216098049611	756.010265927195	941.305130095683	641.930998108059	809.855082495021	745.277063066588	608.852885025889	735.396066999474	632.245078548327	664.762579766889	815.886462330412	585.472794752748	583.267498737056	822.584913197820	494.750332565694	586.686874423517	788.815537360327	747.483089681202	389.867457618951	706.856219046414	631.836793015351	322.536396278213	794.676832521325	549.017496127540	379.113526270579	788.456071269368	461.567136890444	375.072746324845	719.219531674184	402.377773450897	370.837388864826	578.491463819913	360.474505272795	321.621610857846	562.136984927103	234.534678636042	381.973035082647	794.492105138734	405.650365310845	590.631140121339	726.328489645459	300.051565254562	650.926219549365	765.925799782843	207.096251350534	584.528834922157	629.355500531446	43.864285463938	556.179103784791	802.576075744150	97.369989499431	585.751427287569	715.778142999571	36.680592871094	627.132398240154	923.354966674361	42.080020970467	607.430467163080	367.775936535651	170.310184427940	417.111133867364	429.184203305479	125.464063329909	339.511751001507	533.114746933371	136.145942826848	362.992282505544	614.075810689590	33.640357751286	340.567430592379	706.854037922478	1093.908982649345	230.333327495265	923.169610124210	950.701120198277	259.927252409736	670.857218686093	1083.773841169660	814.810008974667	828.058694002275	876.256816388437	820.606177725200	
91	7.859285714286	738.005434504837	964.835958449092	370.492968961850	524.566501753724	1001.500207497245	529.226996462754	685.658667563934	1443.278442819066	366.968900257979	787.936168861841	1367.498297630536	526.211489078309	699.220391353549	1431.095651300202	703.016063885752	683.304448858333	1497.558925784810	520.505059348007	755.994582074063	942.135340644449	643.922514568538	807.350521846221	744.877805187523	611.624127731264	731.278732162764	632.566332278390	667.131920504125	811.491611016948	585.002757067298	585.979114503583	816.840919172653	494.477641864906	589.202277723023	791.477590116467	751.117821868114	391.291829404614	712.855771322645	634.112829739474	322.940678304969	803.209045636100	553.028129043660	378.499238954718	798.331176536274	464.712486745708	373.755431232589	728.308966188965	405.147620657102	369.933268396247	586.036013947001	365.945697061451	322.395945378627	568.479819398211	239.863480199048	382.197164153042	788.588894093798	405.597071627229	592.715786389425	719.663764719115	300.063857804293	652.256259391250	759.374481402172	207.185153955521	585.805707128634	622.149231126371	44.107334885258	556.478575136386	795.671407087997	97.349201159407	586.273377935783	708.594642485598	36.668040540576	627.367974270671	916.207281207893	41.578079463805	607.691276566527	373.185155347151	179.725281997220	419.586229530861	432.531587847581	133.837297931390	340.799587969092	537.333942604623	141.560875508732	363.003165617813	615.257253127333	34.845136193145	338.456850956081	700.967812536649	1093.677635446313	234.313329215750	911.189487587662	940.358892503765	259.908875603797	679.420559970614	1085.210258648548	819.924568894787	844.935443757715	884.353892941019	824.887515183374	
92	7.873500000000	736.291344732194	965.913503653754	372.364258370497	523.844348313084	1002.366723079175	532.572619069922	683.064966092246	1444.116230398349	369.249060948792	787.052952550272	1368.461847358044	527.498106612164	700.033859162721	1431.997031531828	705.066129547780	682.240899169011	1498.481192469369	522.736167719898	755.815051479307	942.953028090691	645.730738846780	804.672594392763	744.571256696582	614.019511011093	727.090853469855	632.947175550210	669.251321268221	806.944129941016	584.604099418197	588.395158141686	810.979550593569	494.279241678210	591.459738971785	793.637014286830	754.842842313426	392.458093718929	718.029795470905	636.676283111622	323.140229493681	810.775189920168	557.336618529411	377.565731826987	807.361971733838	468.329006746133	372.209347886397	737.000583471785	408.185199241854	368.784939732910	593.531589651786	370.614011880056	323.026800324036	575.765489842775	244.266361462615	382.256115723353	782.579374726920	405.612965132026	594.617091481523	712.910011977600	300.170630447786	653.480391959515	752.768839089081	207.335024250330	587.010701381146	614.936658958788	44.386233931239	556.780539048160	788.765417413718	97.357685302072	586.779611596702	701.412797008765	36.672232358696	627.591430197846	909.050129519070	41.141700382886	607.932511969595	380.268840370790	186.225494704230	422.122948171161	437.853937969483	140.187874512081	341.997283316560	543.296172256291	146.110110749356	362.788577948099	619.289067152111	36.424541389335	335.774339715994	694.769689294598	1093.512306460239	238.246574528349	897.841560445805	929.768174045260	259.388398835771	687.855495993501	1086.742469938361	824.672101072807	861.268356866123	892.779534703135	828.901885580752	
93	7.887714285714	734.438210318040	967.062336483984	374.045295987875	522.988687170568	1003.246049462820	535.758532853262	680.411563634272	1444.989606572280	371.485442213709	786.057140240058	1369.414203902079	528.720394413629	700.716831762471	1432.848916617355	707.030928214846	681.126854643425	1499.403945965310	524.927339565349	755.478978044444	943.751323948945	647.343366319922	801.835778723938	744.353467938420	616.002512403584	722.866403869171	633.379896131328	671.113231904885	802.257366490506	584.273332927076	590.485095183324	805.028386691221	494.149947238730	593.429445928273	795.281825436807	758.605238707741	393.359823360073	722.323274862493	639.446813102257	323.166501117061	817.314466786261	561.833138469854	376.344285310157	815.477789639922	472.334670509105	370.455945946255	745.253560134228	411.397567631897	367.413666499452	600.986742449788	374.243077689167	323.449607569487	584.096847633363	247.493022395712	382.068699521654	776.485192873503	405.693610464571	596.313328123052	706.098928082508	300.372163495267	654.596136753728	746.114906570973	207.544441368710	588.127319748123	607.729919780232	44.701839505239	557.082448155117	781.863110256270	97.400455509422	587.263776565538	694.245330597395	36.693278729984	627.799258205389	901.896124013276	40.780651956841	608.148625960382	389.126897018912	189.425473088824	424.497201459229	445.343194449549	144.094097773635	342.952270576794	551.203101397742	149.463592546744	362.263664434274	626.476159620220	38.220660049286	332.581110900236	688.299467742498	1093.465850730059	242.102935087701	883.103295054090	919.138211637625	258.428607853822	696.118530193570	1088.335870010576	828.997594925735	877.046275975761	901.516826553597	832.585932239008	
